<svg width="11.000000" height="11.000000" viewBox="0 0 11 11" fill="none" xmlns="http://www.w3.org/2000/svg" xmlns:xlink="http://www.w3.org/1999/xlink">
	<desc>
			Created with Pixso.
	</desc>
	<defs/>
	<path id="Vector" d="M4.29 -0.17C4.35 -0.3 4.45 -0.41 4.58 -0.49C4.7 -0.56 4.85 -0.61 5 -0.61C5.14 -0.61 5.29 -0.56 5.41 -0.49C5.54 -0.41 5.64 -0.3 5.7 -0.17L7.03 2.53L10.01 2.96C10.15 2.98 10.29 3.05 10.4 3.14C10.52 3.23 10.6 3.36 10.65 3.5C10.69 3.64 10.7 3.79 10.66 3.93C10.63 4.07 10.55 4.2 10.45 4.31L8.29 6.41L8.8 9.37C8.83 9.51 8.81 9.66 8.75 9.8C8.7 9.93 8.61 10.05 8.49 10.14C8.37 10.23 8.23 10.28 8.08 10.29C7.93 10.3 7.79 10.27 7.66 10.2L5 8.8L2.33 10.2C2.2 10.27 2.06 10.3 1.91 10.29C1.76 10.28 1.62 10.23 1.5 10.14C1.39 10.05 1.29 9.93 1.24 9.8C1.18 9.66 1.17 9.51 1.19 9.37L1.7 6.41L-0.45 4.31C-0.56 4.2 -0.63 4.07 -0.67 3.93C-0.7 3.79 -0.7 3.64 -0.65 3.5C-0.61 3.36 -0.52 3.24 -0.41 3.14C-0.3 3.05 -0.16 2.98 -0.02 2.96L2.96 2.53L4.29 -0.17Z" fill="#FFB800" fill-opacity="1.000000" fill-rule="nonzero"/>
</svg>
